<svg width="42" height="42" viewBox="0 0 42 42" fill="none" xmlns="http://www.w3.org/2000/svg">
<path d="M14.8751 29.7499C13.4751 29.7499 12.2501 30.9749 12.2501 32.3749C12.2501 33.7749 13.4751 34.9999 14.8751 34.9999C16.2751 34.9999 17.5001 33.7749 17.5001 32.3749C17.5001 30.9749 16.2751 29.7499 14.8751 29.7499ZM27.1251 29.7499C25.7251 29.7499 24.5001 30.9749 24.5001 32.3749C24.5001 33.7749 25.7251 34.9999 27.1251 34.9999C28.5251 34.9999 29.7501 33.7749 29.7501 32.3749C29.7501 30.9749 28.5251 29.7499 27.1251 29.7499ZM16.6251 23.0999H25.5501C27.6501 23.0999 29.4001 21.8749 30.1001 19.9499L32.3751 13.8249C32.9001 12.4249 31.8501 10.8499 30.2751 10.8499H12.7751L11.3751 7.34992H6.12512V9.97492H9.62512L14.3501 21.6999L13.3001 23.9749C12.2501 26.0749 13.8251 28.3499 16.1001 28.3499H30.8001V25.7249H16.1001C15.7501 25.7249 15.5751 25.3749 15.7501 25.0249L16.8001 23.0999H16.6251ZM13.8251 13.6499H29.5751L27.4751 19.2499C27.1251 20.1249 26.4251 20.6499 25.3751 20.6499H16.4501L13.6501 13.6499H13.8251Z" fill="black"/>
</svg>
